# Blender 4.0.2
# www.blender.org
mtllib dadoA.mtl
o Cube
v 1.000000 1.000000 -1.000000
v 1.000000 -1.000000 -1.000000
v 1.000000 1.000000 1.000000
v 1.000000 -1.000000 1.000000
v -1.000000 1.000000 -1.000000
v -1.000000 -1.000000 -1.000000
v -1.000000 1.000000 1.000000
v -1.000000 -1.000000 1.000000
vn -0.0000 1.0000 -0.0000
vn -0.0000 -0.0000 1.0000
vn -1.0000 -0.0000 -0.0000
vn -0.0000 -1.0000 -0.0000
vn 1.0000 -0.0000 -0.0000
vn -0.0000 -0.0000 -1.0000
vt 0.755174 0.348669
vt 0.997579 0.348669
vt 0.997579 0.640995
vt 0.755174 0.640995
vt 0.745144 0.690180
vt 0.746308 0.979596
vt 0.504728 0.980991
vt 0.503564 0.691575
vt 0.743146 0.005772
vt 0.742709 0.318007
vt 0.506727 0.317107
vt 0.507163 0.004872
vt 0.244947 0.620882
vt 0.003101 0.621807
vt 0.002206 0.371809
vt 0.244052 0.370884
vt 0.496702 0.343466
vt 0.497824 0.661707
vt 0.253425 0.662611
vt 0.252304 0.344369
vt 0.744034 0.361789
vt 0.745336 0.611785
vt 0.508719 0.613161
vt 0.507417 0.363165
s 0
usemtl Material
f 1/1/1 5/2/1 7/3/1 3/4/1
f 4/5/2 3/6/2 7/7/2 8/8/2
f 8/9/3 7/10/3 5/11/3 6/12/3
f 6/13/4 2/14/4 4/15/4 8/16/4
f 2/17/5 1/18/5 3/19/5 4/20/5
f 6/21/6 5/22/6 1/23/6 2/24/6
